<?xml version="1.0" standalone="no"?>
<!DOCTYPE svg PUBLIC "-//W3C//DTD SVG 20010904//EN"
 "http://www.w3.org/TR/2001/REC-SVG-20010904/DTD/svg10.dtd">
<svg version="1.0" xmlns="http://www.w3.org/2000/svg"
 width="461.000000pt" height="541.000000pt" viewBox="0 0 461.000000 541.000000"
 preserveAspectRatio="xMidYMid meet">

<g transform="translate(0.000000,541.000000) scale(0.100000,-0.100000)"
fill="#000000" stroke="none">
<path d="M2140 4801 l0 -141 65 0 c40 0 78 6 96 15 52 27 61 93 17 124 -19 13
-19 13 1 32 26 25 27 50 2 80 -17 21 -30 24 -100 27 l-81 4 0 -141z m136 74
c9 -23 -15 -45 -47 -45 -26 0 -29 4 -29 30 0 28 3 30 35 30 23 0 38 -6 41 -15z
m-2 -101 c19 -18 19 -20 6 -45 -8 -13 -21 -19 -45 -19 -33 0 -35 2 -35 33 0
19 3 37 7 40 12 13 51 7 67 -9z"/>
<path d="M2426 4894 c-3 -24 -9 -87 -12 -139 l-7 -95 26 0 c14 0 28 3 31 8 2
4 7 64 11 133 l8 126 -26 5 c-23 4 -25 1 -31 -38z"/>
<path d="M2596 4912 c-3 -5 -10 -37 -16 -73 -5 -35 -17 -86 -25 -113 -20 -66
-19 -76 9 -76 21 0 26 8 40 65 9 35 16 75 16 89 0 47 17 36 34 -22 43 -146 51
-164 74 -173 43 -17 50 -11 62 49 7 31 21 90 31 131 11 40 18 75 17 76 -2 1
-13 6 -25 9 -24 8 -31 -8 -52 -128 -6 -33 -13 -61 -15 -63 -3 -4 -19 39 -56
154 -17 53 -28 73 -44 77 -30 8 -44 7 -50 -2z"/>
<path d="M1900 4897 c-22 -11 -26 -23 -37 -97 -6 -47 -12 -111 -12 -144 -1
-49 1 -57 15 -52 9 3 20 6 25 6 5 0 9 15 9 34 0 41 5 45 68 53 44 5 49 3 60
-21 12 -26 36 -33 60 -17 10 6 5 20 -22 59 -19 28 -36 55 -38 59 -13 31 -85
133 -93 133 -5 0 -21 -6 -35 -13z m55 -92 c30 -51 26 -65 -16 -65 -24 0 -29 4
-29 24 0 25 11 86 15 86 2 0 15 -20 30 -45z"/>
<path d="M1665 4831 c-3 -6 4 -34 15 -63 36 -91 49 -128 45 -128 -2 0 -33 24
-69 53 -95 76 -109 87 -118 87 -14 0 -58 -23 -58 -31 0 -6 77 -205 95 -246 0
-1 11 0 24 4 27 7 26 18 -17 118 -16 39 -28 72 -26 74 2 2 43 -29 93 -68 85
-67 91 -70 120 -60 17 6 31 16 31 21 0 6 -21 64 -47 129 -35 86 -53 119 -65
119 -9 0 -19 -4 -23 -9z"/>
<path d="M2957 4735 c-104 -107 -140 -146 -136 -149 2 -2 14 -8 25 -14 18 -9
25 -7 45 14 26 27 51 27 96 -3 21 -14 24 -22 20 -49 -5 -27 -1 -33 20 -43 14
-7 27 -10 28 -9 6 6 25 197 25 247 0 46 -2 50 -30 60 -29 10 -33 7 -93 -54z
m79 -17 c-3 -13 -8 -40 -11 -60 l-6 -37 -34 16 -33 16 36 43 c40 49 55 55 48
22z"/>
<path d="M3325 4609 c-115 -159 -143 -204 -133 -216 21 -26 44 -11 93 59 28
39 55 79 60 88 6 10 17 25 25 34 11 15 11 20 -7 38 l-21 20 -17 -23z"/>
<path d="M1189 4567 c-14 -7 -45 -27 -67 -46 l-42 -33 64 -77 c34 -42 71 -88
81 -103 9 -16 24 -28 32 -28 8 0 39 25 69 55 48 49 54 59 54 97 0 103 -102
174 -191 135z m100 -68 c41 -40 47 -70 25 -108 -10 -17 -22 -32 -26 -32 -4 -1
-12 -2 -16 -3 -11 -1 -112 119 -112 133 0 14 50 40 77 41 12 0 35 -14 52 -31z"/>
<path d="M2230 4534 c-291 -30 -436 -71 -638 -180 -179 -96 -313 -209 -443
-369 -135 -167 -210 -306 -273 -510 -48 -155 -59 -242 -63 -533 l-5 -273 99 3
98 3 2 180 c2 259 11 392 34 476 11 41 24 90 29 109 31 116 139 312 241 433
74 89 225 227 248 227 6 0 11 4 11 8 0 12 173 107 251 137 35 14 89 32 119 41
160 44 174 46 365 46 180 0 196 -2 307 -31 124 -33 150 -42 263 -98 75 -36 85
-42 156 -89 65 -43 70 -47 183 -159 105 -104 114 -114 157 -180 73 -112 100
-165 138 -265 73 -194 90 -317 91 -652 l0 -188 101 0 102 0 -6 253 c-6 261
-21 394 -58 522 -20 71 -76 221 -89 240 -4 6 -26 46 -50 90 -23 43 -58 100
-76 125 -19 25 -44 59 -56 75 -12 17 -67 75 -122 130 -138 137 -325 262 -475
317 -31 11 -60 24 -66 28 -19 13 -211 59 -290 69 -96 13 -237 20 -285 15z"/>
<path d="M3399 4458 c-35 -40 -73 -84 -86 -98 -27 -29 -28 -33 -7 -51 18 -14
10 -21 112 96 36 41 43 45 39 25 -3 -14 -13 -69 -23 -122 l-18 -97 25 -20 c13
-11 27 -20 30 -21 6 0 139 152 164 187 13 18 12 22 -3 36 -17 15 -22 12 -81
-58 -34 -41 -65 -75 -67 -75 -4 0 -1 21 22 144 l17 89 -24 18 c-13 10 -27 19
-31 19 -4 0 -35 -33 -69 -72z"/>
<path d="M930 4345 l-24 -25 64 -130 c36 -72 69 -129 74 -127 23 8 31 37 18
69 -11 31 -10 34 23 68 35 35 36 35 64 18 28 -16 30 -15 52 8 l22 24 -39 16
c-63 26 -146 64 -185 85 -45 24 -41 24 -69 -6z m140 -91 c0 -10 -45 -42 -53
-37 -8 5 -47 78 -47 88 0 3 23 -6 50 -20 28 -14 50 -28 50 -31z"/>
<path d="M3690 4280 c-12 -8 -11 -13 8 -33 12 -13 22 -28 22 -33 0 -5 -38 -39
-84 -74 -47 -36 -85 -67 -85 -70 0 -3 6 -14 14 -24 17 -22 22 -20 125 63 35
28 66 51 70 51 4 0 17 -11 29 -24 19 -20 27 -23 41 -14 16 10 12 19 -42 90
-61 78 -71 85 -98 68z"/>
<path d="M773 4158 c-34 -53 -34 -51 40 -144 45 -56 63 -85 51 -82 -99 28
-176 48 -188 48 -8 0 -24 -13 -35 -28 l-20 -29 110 -71 c60 -40 116 -72 123
-72 12 0 31 29 24 35 -4 3 -129 86 -154 102 -17 10 63 -8 159 -37 44 -13 43
-14 52 21 5 22 -4 39 -59 105 -36 43 -64 79 -62 81 2 2 41 -21 86 -52 79 -53
84 -55 102 -39 23 22 23 22 -102 100 -52 32 -96 62 -98 66 -5 12 -20 10 -29
-4z"/>
<path d="M1720 4031 c-60 -41 -86 -60 -132 -98 l-39 -32 38 -6 c98 -17 202
-48 278 -85 77 -36 222 -142 268 -194 47 -54 126 -166 147 -208 l23 -48 19 30
c10 17 18 34 18 38 0 10 87 129 127 175 59 67 193 167 278 208 71 34 168 63
284 85 23 5 23 5 5 25 -10 11 -59 48 -109 81 -79 53 -94 59 -126 54 -96 -15
-322 -148 -430 -253 -31 -31 -60 -55 -64 -55 -4 0 -33 24 -64 55 -112 108
-340 241 -436 253 -33 4 -48 0 -85 -25z"/>
<path d="M3865 4046 c-11 -7 -40 -24 -65 -38 -111 -62 -125 -70 -133 -78 -11
-10 54 -139 69 -140 6 0 17 7 24 15 9 11 8 20 -7 42 -35 50 -35 51 -2 68 33
18 43 14 63 -26 13 -26 26 -32 44 -20 11 7 10 16 -7 49 l-21 41 22 15 c31 22
33 21 53 -24 18 -40 29 -47 52 -32 13 8 5 28 -43 109 -22 37 -23 38 -49 19z"/>
<path d="M3940 3804 c-169 -67 -171 -67 -168 -94 3 -20 8 -24 28 -21 14 1 37
10 53 17 41 22 47 -6 11 -57 -16 -22 -33 -46 -38 -54 -7 -9 -6 -23 2 -40 l13
-27 27 38 c16 22 31 47 35 58 5 14 13 16 30 11 54 -17 73 -16 100 5 20 16 27
30 26 53 -1 38 -31 130 -45 134 -5 1 -38 -9 -74 -23z m66 -69 c3 -14 4 -32 0
-40 -8 -22 -53 -19 -66 4 -15 28 -13 37 13 49 35 17 46 14 53 -13z"/>
<path d="M554 3754 c-8 -20 -14 -37 -12 -39 21 -20 154 -115 160 -115 4 0 8
-5 8 -11 0 -7 -35 -10 -107 -8 -97 3 -107 1 -114 -17 -15 -37 -10 -61 14 -67
12 -3 69 -21 126 -42 57 -20 104 -35 106 -33 1 2 6 13 9 25 6 20 0 24 -94 53
-55 17 -100 34 -100 37 0 3 50 3 110 0 l111 -7 10 27 c5 14 8 27 7 28 -2 1
-30 21 -63 46 -33 24 -73 52 -88 62 -48 31 -25 29 77 -7 l97 -35 8 22 c6 15 4
24 -4 30 -14 7 -125 47 -203 73 l-43 13 -15 -35z"/>
<path d="M4025 3520 c-44 -10 -101 -21 -126 -24 -43 -6 -46 -9 -41 -32 4 -21
9 -24 27 -20 12 3 51 10 86 15 35 5 72 12 82 16 31 13 18 -1 -68 -70 -88 -71
-101 -90 -91 -131 7 -26 17 -28 79 -15 23 5 77 15 120 22 71 11 77 14 77 35 0
29 -10 30 -115 8 -42 -9 -79 -14 -81 -11 -4 3 96 97 151 142 15 12 8 86 -9 84
-6 -1 -47 -9 -91 -19z"/>
<path d="M685 3370 c-16 -4 -78 -18 -137 -30 l-108 -23 -6 -35 c-4 -20 -3 -37
2 -39 6 -2 63 -30 128 -63 64 -33 122 -60 127 -60 5 0 9 12 9 28 0 21 -7 30
-31 41 -27 12 -30 17 -25 44 3 16 6 40 6 53 0 18 6 24 23 24 31 0 43 10 51 43
7 29 6 29 -39 17z m-85 -103 c0 -19 -2 -36 -5 -39 -3 -3 -28 6 -55 21 l-50 26
48 12 c26 6 50 12 55 12 4 1 7 -14 7 -32z"/>
<path d="M1208 2863 l-3 -398 -197 -3 -198 -2 0 -695 0 -695 688 0 688 0 54
55 c30 30 57 55 60 55 4 0 32 -25 63 -55 l56 -55 491 0 490 0 0 295 0 295
-100 0 -100 0 0 -195 0 -195 -364 0 -363 0 -79 80 c-43 44 -84 80 -89 80 -6 0
-46 -36 -90 -80 l-80 -80 -367 0 -368 0 0 195 0 195 -95 0 -95 0 0 -195 0
-195 -100 0 -100 0 0 500 0 500 195 0 195 0 2 398 3 397 898 3 897 2 0 -400 0
-400 198 -2 197 -3 3 -597 2 -598 100 0 100 0 0 695 0 695 -200 0 -200 0 0
400 0 400 -1095 0 -1095 0 -2 -397z"/>
<path d="M3902 3173 c2 -21 10 -29 36 -37 31 -9 32 -11 32 -61 0 -49 -2 -53
-30 -65 -23 -10 -30 -19 -30 -41 l0 -29 58 21 c31 12 61 25 66 30 6 5 17 9 25
9 9 0 40 10 68 22 50 22 53 25 53 60 0 33 -3 38 -27 44 -16 3 -50 14 -78 24
-68 25 -151 50 -165 50 -6 0 -10 -12 -8 -27z m189 -79 c21 -4 39 -10 39 -13 0
-7 -87 -41 -102 -41 -5 0 -8 16 -8 36 0 29 3 35 16 30 9 -3 33 -9 55 -12z"/>
<path d="M430 3050 c0 -29 1 -30 50 -30 l50 0 0 -60 0 -60 -50 0 c-47 0 -50
-2 -50 -25 l0 -25 135 0 135 0 0 25 c0 24 -3 25 -60 25 l-60 0 0 60 0 60 60 0
60 0 0 30 0 30 -135 0 -135 0 0 -30z"/>
<path d="M4130 2915 l0 -34 -112 -3 -112 -3 0 -25 0 -25 112 -3 112 -3 0 -34
c0 -31 3 -35 25 -35 l25 0 0 100 0 100 -25 0 c-22 0 -25 -4 -25 -35z"/>
<path d="M430 2745 c0 -25 0 -25 93 -25 108 0 137 -13 137 -61 0 -41 -41 -58
-145 -56 -80 1 -80 0 -83 -26 l-3 -27 108 0 c107 0 110 1 136 28 23 24 27 37
27 84 0 45 -5 60 -25 82 -23 25 -28 26 -135 26 l-110 0 0 -25z"/>
<path d="M3907 2678 c-3 -12 -4 -25 -1 -30 3 -4 66 -8 140 -8 l134 0 0 30 0
30 -134 0 c-129 0 -134 -1 -139 -22z"/>
<path d="M3944 2547 c-43 -39 -55 -101 -31 -158 27 -66 136 -90 216 -49 46 23
51 34 51 115 0 60 -2 65 -35 94 -32 28 -42 31 -100 31 -60 0 -68 -3 -101 -33z
m160 -39 c30 -13 40 -38 31 -77 -10 -49 -94 -68 -155 -36 -25 13 -30 21 -30
54 0 29 6 43 23 54 26 19 96 22 131 5z"/>
<path d="M432 2439 c3 -39 5 -42 59 -64 30 -12 72 -25 92 -29 20 -4 39 -11 41
-15 3 -5 -39 -23 -94 -40 l-100 -32 0 -39 0 -40 135 0 135 0 0 25 c0 25 0 25
-102 26 l-103 1 100 32 c90 28 100 34 103 57 3 24 -3 28 -70 52 -40 14 -85 29
-101 33 -61 14 -31 22 68 16 l105 -5 0 32 0 31 -136 0 -135 0 3 -41z"/>
<path d="M3906 2251 c-4 -5 -3 -16 0 -25 5 -13 24 -16 107 -16 61 0 97 -4 92
-9 -10 -9 -65 -41 -125 -73 -57 -30 -77 -53 -76 -84 l2 -29 137 -3 137 -3 0
25 c0 25 -1 25 -102 28 l-103 3 103 58 102 58 0 40 0 39 -134 0 c-74 0 -137
-4 -140 -9z"/>
<path d="M1781 2097 c-8 -10 -7 -14 2 -14 8 0 14 6 14 14 0 7 -1 13 -2 13 -2
0 -8 -6 -14 -13z"/>
<path d="M2566 2094 c-3 -9 -3 -21 1 -26 3 -6 2 -8 -4 -5 -5 3 -38 7 -74 8
-35 1 -70 6 -76 12 -10 7 -13 -12 -13 -92 l0 -101 203 -2 202 -3 0 -100 0
-100 -302 -3 -303 -2 0 189 c0 172 -6 221 -25 191 -3 -5 -14 -10 -23 -9 -14 0
-13 2 3 9 12 6 -50 9 -163 9 -136 -1 -180 -4 -175 -12 4 -7 -2 -5 -12 3 -10 8
-16 10 -12 3 5 -8 1 -11 -12 -10 -11 0 -17 5 -15 9 7 11 -70 10 -100 -2 -23
-8 -26 -7 -27 13 0 17 -3 14 -14 -13 -10 -26 -14 -104 -14 -307 l-1 -273 695
0 695 0 -4 193 c-2 105 -5 238 -5 295 l-1 104 -203 -4 -204 -3 3 23 c3 25 -11
30 -20 6z m-458 -41 c-10 -2 -28 -2 -40 0 -13 2 -5 4 17 4 22 1 32 -1 23 -4z
m-100 -270 l3 -103 -106 0 -105 0 0 98 c0 54 3 102 7 106 4 4 50 5 103 4 l95
-3 3 -102z"/>
<path d="M1210 1970 l0 -100 95 0 95 0 0 100 0 100 -95 0 -95 0 0 -100z"/>
<path d="M3200 1970 l0 -100 100 0 100 0 0 100 0 100 -100 0 -100 0 0 -100z"/>
<path d="M650 1999 c-13 -23 1 -49 26 -49 20 0 34 32 23 53 -13 23 -36 21 -49
-4z"/>
<path d="M3909 1969 c-1 -2 -2 -16 -3 -31 -2 -23 4 -30 31 -39 32 -10 33 -12
33 -64 0 -51 -1 -54 -30 -60 -25 -5 -30 -11 -30 -36 0 -16 3 -29 8 -29 6 0
129 43 235 82 23 8 27 16 27 47 l0 38 -117 40 c-65 22 -126 44 -135 48 -10 4
-19 6 -19 4z m162 -110 c19 -6 41 -13 49 -16 16 -5 -21 -24 -72 -37 -27 -6
-28 -5 -28 29 0 39 2 40 51 24z"/>
<path d="M430 1835 c0 -98 1 -105 20 -105 17 0 20 7 20 40 l0 40 115 0 115 0
0 30 0 30 -115 0 -115 0 0 35 c0 28 -4 35 -20 35 -19 0 -20 -7 -20 -105z"/>
<path d="M473 1699 c-33 -12 -44 -43 -41 -117 l3 -67 130 0 130 0 3 28 c3 26
2 27 -47 27 -50 0 -51 0 -51 31 0 38 -35 99 -58 100 -9 0 -24 2 -32 3 -8 2
-25 0 -37 -5z m65 -62 c6 -6 13 -24 17 -40 7 -27 6 -27 -39 -27 -40 0 -46 3
-46 21 0 49 42 78 68 46z"/>
<path d="M3906 1585 c-8 -83 -4 -95 25 -95 17 0 19 7 19 60 l0 60 115 0 115 0
0 25 0 25 -134 0 -133 0 -7 -75z"/>
<path d="M550 715 l0 -245 1750 0 1750 0 0 245 0 245 -1750 0 -1750 0 0 -245z
m685 131 c50 -21 69 -57 69 -132 0 -72 -13 -103 -54 -127 -36 -22 -114 -22
-150 -1 -84 50 -77 222 10 258 45 19 82 20 125 2z m910 4 c48 -18 50 -85 4
-118 -21 -15 -21 -15 5 -38 14 -13 27 -24 30 -24 2 0 9 14 15 31 9 25 15 30
38 27 33 -4 33 -27 1 -72 l-21 -29 27 -19 c14 -11 26 -24 26 -29 0 -13 -64
-11 -77 2 -8 8 -17 8 -31 0 -35 -19 -106 -13 -136 10 -33 26 -36 82 -6 114 16
17 18 27 11 53 -13 42 -4 70 28 87 31 17 51 18 86 5z m911 -57 c13 -32 24 -63
24 -69 0 -6 11 -37 25 -68 34 -76 33 -88 -7 -84 -27 2 -34 9 -42 36 -8 30 -11
32 -57 32 -46 0 -48 -1 -59 -35 l-12 -36 -66 3 -67 3 -34 53 c-45 69 -61 68
-61 -3 0 -54 0 -55 -30 -55 l-30 0 0 140 0 140 69 0 c54 0 74 -4 95 -21 34
-26 36 -82 5 -115 l-22 -23 33 -51 c18 -27 36 -50 40 -50 4 0 27 57 52 128 44
125 45 127 79 132 19 3 36 5 38 3 2 -1 14 -29 27 -60z m-2036 32 c0 -22 -4
-25 -40 -25 l-40 0 0 -115 0 -115 -25 0 c-24 0 -24 0 -27 113 l-3 112 -40 5
c-37 5 -49 19 -38 43 2 4 51 7 109 7 l104 0 0 -25z m410 -78 c0 -111 6 -127
50 -127 44 0 50 16 50 127 l0 103 30 0 30 0 0 -111 c0 -109 0 -111 -29 -140
-24 -23 -38 -29 -75 -29 -103 0 -126 32 -126 180 l0 100 35 0 35 0 0 -103z
m390 88 c26 -14 30 -21 30 -59 0 -30 -6 -48 -20 -61 -11 -10 -20 -23 -20 -30
0 -7 9 -20 20 -30 11 -10 20 -24 20 -30 0 -7 7 -18 15 -25 24 -20 18 -30 -17
-30 -29 1 -37 7 -66 55 -44 72 -62 72 -62 0 0 -54 0 -55 -30 -55 l-30 0 0 140
0 140 65 0 c40 0 78 -6 95 -15z m780 -9 c0 -21 -5 -25 -36 -28 l-36 -3 -2
-110 -1 -110 -32 -3 -33 -3 0 115 0 116 -35 0 c-31 0 -35 3 -35 25 l0 25 105
0 c105 0 105 0 105 -24z m611 -77 c21 -69 34 -97 40 -88 5 8 9 22 9 31 0 9 12
49 26 87 24 65 29 71 55 71 16 0 29 -2 29 -4 0 -2 -11 -37 -25 -78 -14 -40
-35 -101 -47 -135 -20 -60 -22 -63 -53 -63 -31 0 -34 4 -53 58 -30 82 -72 209
-72 216 0 3 13 6 30 6 29 0 30 -3 61 -101z m359 76 c0 -23 -3 -25 -50 -25 -49
0 -50 -1 -50 -30 0 -29 2 -30 45 -30 41 0 45 -2 45 -25 0 -23 -4 -25 -45 -25
-45 0 -45 0 -45 -35 l0 -35 50 0 c47 0 50 -2 50 -25 0 -25 -1 -25 -85 -25
l-85 0 0 140 0 140 85 0 c84 0 85 0 85 -25z m110 -90 l0 -115 60 0 c58 0 60
-1 60 -25 l0 -26 -87 3 -88 3 -3 138 -3 137 31 0 30 0 0 -115z"/>
<path d="M1131 791 c-9 -6 -16 -32 -19 -69 -4 -51 -1 -63 17 -81 48 -48 117
-4 115 75 -1 54 -25 84 -68 84 -17 0 -37 -4 -45 -9z"/>
<path d="M2085 800 c-11 -17 5 -49 21 -43 19 7 19 53 0 53 -8 0 -18 -5 -21
-10z"/>
<path d="M2072 673 c-15 -28 3 -53 38 -53 38 0 38 9 1 44 -28 26 -30 27 -39 9z"/>
<path d="M2700 764 c0 -32 2 -35 26 -32 56 6 53 68 -2 68 -21 0 -24 -5 -24
-36z"/>
<path d="M2987 770 c-3 -19 -9 -45 -13 -57 -6 -21 -3 -23 26 -23 30 0 32 2 26
26 -4 15 -13 41 -20 58 l-13 31 -6 -35z"/>
<path d="M1720 765 c0 -36 6 -40 48 -29 26 7 31 48 6 58 -39 15 -54 7 -54 -29z"/>
</g>
</svg>
